<?xml version="1.0" standalone="no"?>
<!DOCTYPE svg PUBLIC "-//W3C//DTD SVG 20010904//EN"
 "http://www.w3.org/TR/2001/REC-SVG-20010904/DTD/svg10.dtd">
<svg version="1.0" xmlns="http://www.w3.org/2000/svg"
 width="2000.000000pt" height="789.000000pt" viewBox="0 0 2000.000000 789.000000"
 preserveAspectRatio="xMidYMid meet">

<g transform="translate(0.000000,789.000000) scale(0.100000,-0.100000)"
fill="#000000" stroke="none">
<path d="M4285 5390 c-264 -81 -488 -154 -497 -163 -36 -34 -11 -107 37 -107
9 0 231 65 492 145 l475 145 491 -150 c274 -84 499 -148 509 -144 47 14 61 91
20 113 -31 16 -1009 311 -1028 310 -11 -1 -235 -68 -499 -149z"/>
<path d="M3400 5112 c-30 -25 -47 -132 -56 -357 -25 -625 172 -1233 552 -1704
135 -167 351 -364 537 -490 115 -77 335 -201 358 -201 47 0 370 199 529 326
109 87 298 276 380 379 231 292 410 674 484 1035 47 231 59 371 53 625 -7 251
-22 367 -53 390 -22 16 -52 19 -73 6 -8 -5 -136 -262 -285 -571 l-271 -561
-745 1 c-409 0 -747 4 -751 8 -3 4 -134 256 -289 560 -155 304 -290 557 -300
562 -27 14 -45 12 -70 -8z m656 -1392 c316 -617 573 -1124 571 -1126 -7 -8
-179 110 -282 193 -395 316 -670 745 -795 1237 -56 221 -72 348 -77 606 -3
124 -2 222 1 219 4 -4 265 -511 582 -1129z m2055 805 c-34 -532 -195 -971
-499 -1365 -89 -115 -285 -308 -407 -401 -106 -81 -245 -173 -245 -163 0 4
164 313 364 688 231 433 440 839 572 1116 l209 434 9 -69 c5 -43 4 -137 -3
-240z m-636 -682 c-24 -63 -679 -1273 -686 -1266 -7 7 -469 903 -600 1166
l-59 117 676 0 c640 0 676 -1 669 -17z"/>
<path d="M7165 4521 c-48 -22 -79 -54 -100 -103 -13 -32 -15 -102 -15 -470 0
-400 2 -436 19 -473 22 -48 54 -79 103 -100 32 -13 110 -15 548 -15 l510 0 0
65 0 64 -506 3 -506 3 -19 24 c-18 22 -19 44 -19 431 0 387 1 409 19 431 l19
24 506 3 506 3 0 64 0 65 -512 0 c-477 0 -516 -2 -553 -19z"/>
<path d="M8990 3950 l0 -590 535 0 535 0 0 65 0 65 -470 0 -470 0 0 195 0 195
380 0 380 0 0 70 0 70 -380 0 -380 0 0 195 0 195 470 0 470 0 0 65 0 65 -535
0 -535 0 0 -590z"/>
<path d="M10827 4533 c-4 -3 -7 -269 -7 -590 l0 -583 70 0 70 0 0 220 0 220
248 -1 247 0 183 -220 183 -219 84 0 c47 0 85 2 85 4 0 3 -81 101 -180 218
l-180 213 124 5 c120 5 125 6 162 36 80 65 79 58 82 319 3 218 2 237 -17 273
-25 49 -71 88 -119 102 -41 11 -1024 15 -1035 3z m1027 -155 c13 -18 16 -57
16 -211 0 -186 0 -188 -25 -212 l-24 -25 -401 0 c-399 0 -431 2 -452 34 -4 6
-8 98 -8 205 0 167 2 197 17 213 15 17 42 18 439 18 l423 0 15 -22z"/>
<path d="M12710 4475 l0 -65 260 0 260 0 0 -525 0 -525 65 0 65 0 2 523 3 522
258 3 257 2 0 65 0 65 -585 0 -585 0 0 -65z"/>
<path d="M14600 3950 l0 -590 65 0 65 0 0 590 0 590 -65 0 -65 0 0 -590z"/>
<path d="M15550 3950 l0 -590 65 0 65 0 0 260 0 260 193 -1 192 0 215 -259
215 -259 88 0 89 -1 -40 48 c-319 378 -451 538 -449 545 1 4 109 135 240 291
130 156 237 287 237 290 0 3 -37 6 -82 5 l-83 0 -215 -259 -215 -259 -192 0
-193 -1 0 260 0 260 -65 0 -65 0 0 -590z"/>
</g>
</svg>
